<svg viewBox="0 0 81 57.78" xmlns="http://www.w3.org/2000/svg" data-name="Layer 2" id="Layer_2">
  <defs>
    <style>
      .cls-1 {
        fill: #fff;
      }
    </style>
  </defs>
  <g data-name="Layer 1" id="Layer_1-2">
    <g>
      <path d="M7.22,48.38c-1.2.82-2.7,1-3.75,1-1.65,0-3.27-.55-3.32-.57l-.12-.05v-5.12l.28.23s.65.48,1.62.48c.53,0,1.4-.12,1.4-1.02,0-.77-.6-1.45-1.27-2.22-.9-1.07-2.05-2.37-2.05-4.45,0-4.07,2.92-5.52,5.67-5.52,1.85,0,3.17.42,3.22.45l.12.05v4.9l-.3-.25s-.87-.67-2.12-.67c-.9,0-1.3.7-1.3,1.2,0,.85.67,1.62,1.47,2.52,1.13,1.25,2.37,2.67,2.37,4.87,0,1.9-.65,3.32-1.92,4.19Z" class="cls-1"></path>
      <polygon points="23.03 49.37 18.24 49.37 18.24 42.68 14.94 42.68 14.94 49.37 10.15 49.37 10.15 31.12 14.94 31.12 14.94 37.89 18.24 37.89 18.24 31.12 23.03 31.12 23.03 49.37" class="cls-1"></polygon>
      <rect height="18.26" width="4.8" y="31.12" x="24.04" class="cls-1"></rect>
      <polygon points="29.83 31.12 34.6 31.12 34.6 44.53 39.47 44.53 39.47 49.37 29.83 49.37 29.83 31.12 29.83 31.12" class="cls-1"></polygon>
      <path d="M46.72,42.66h2.35l-1.15-4.65-1.2,4.65h0ZM45.45,47.1l-.55,2.27h-4.67l4.97-18.26h5.32l5.15,18.26h-4.82l-.55-2.27h-4.85Z" class="cls-1"></path>
      <path d="M64.11,31.12v13.24c0,1.42-.4,2.7-1.1,3.62-.77.95-1.82,1.45-3.07,1.45-2.3,0-3.37-.57-3.42-.6l-.1-.05v-5.04l.3.28s.7.6,1.4.53c.42-.05,1.2-.15,1.2-1.85v-11.56h4.8Z" class="cls-1"></path>
      <rect height="18.31" width="4.8" y="31.12" x="65.11" class="cls-1"></rect>
      <polygon points="78.35 49.43 73.55 49.43 73.55 35.89 70.91 35.89 70.91 31.12 81 31.12 81 35.89 78.35 35.89 78.35 49.43 78.35 49.43" class="cls-1"></polygon>
      <rect ry=".52" rx=".52" height="1.04" width="73.12" y="55.22" x="3.94" class="cls-1"></rect>
      <path d="M69.21,56.99H11.79c-.22,0-.4.18-.4.4s.18.4.4.4h57.42c.22,0,.4-.18.4-.4s-.18-.4-.4-.4Z" class="cls-1"></path>
      <path d="M20.84,20.74h-9.05c-.22,0-.4.18-.4.4s.18.4.4.4h9.05c.22,0,.4-.18.4-.4s-.18-.4-.4-.4Z" class="cls-1"></path>
      <path d="M69.21,20.74h-9.05c-.22,0-.4.18-.4.4s.18.4.4.4h9.05c.22,0,.4-.18.4-.4s-.18-.4-.4-.4Z" class="cls-1"></path>
      <rect ry=".52" rx=".52" height="1.04" width="17.3" y="22.25" x="59.76" class="cls-1"></rect>
      <rect ry=".52" rx=".52" height="1.04" width="17.3" y="22.25" x="3.94" class="cls-1"></rect>
      <path d="M31.31,20.23c-.07.13-.16.31-.28.54-.12.23-.25.49-.4.78-.15.29-.31.6-.48.92-.17.32-.34.64-.51.96-.39.75-.81,1.55-1.27,2.41l-1.92.27c.44-.84.86-1.65,1.25-2.41.17-.32.34-.66.52-.99.17-.34.34-.66.51-.97.16-.31.31-.6.45-.86.14-.26.25-.49.34-.68.19-.37.33-.67.43-.92.1-.25.17-.46.21-.62.04-.16.04-.28.02-.35s-.07-.11-.15-.11c-.15,0-.34.08-.56.25-.22.17-.44.37-.66.62-.22.24-.44.5-.64.78-.21.28-.38.53-.51.76-.11.18-.2.32-.29.43-.09.11-.16.19-.23.24-.08.07-.15.12-.22.15.02-.04.09-.16.2-.35.11-.2.25-.43.42-.69.17-.27.37-.55.58-.85.22-.3.45-.58.69-.83.24-.25.49-.47.75-.63.25-.17.51-.25.76-.25.37,0,.68.04.91.12.23.08.39.21.48.4.08.19.09.44.02.74-.07.31-.22.69-.44,1.16h0ZM28.27,18.06c-.12-.02-.26-.04-.41-.04-.5,0-.92.09-1.27.26-.35.17-.64.4-.88.66-.24.27-.42.56-.55.88-.13.32-.22.63-.28.93-.06.3-.09.56-.09.79s.02.39.06.47c-.4.02-.71-.08-.92-.28-.22-.2-.34-.46-.36-.77s.06-.65.24-1.02.48-.71.88-1.03c.4-.32.92-.58,1.54-.8.62-.21,1.37-.32,2.24-.32h.28c.09,0,.18,0,.27.01l-.76.25ZM23.18,26.11l3.92-8.05,1.92-.25-4.06,8.3h-1.79,0Z" class="cls-1"></path>
      <path d="M33.17,23.68c.12-.26.25-.52.37-.77.13-.25.24-.49.35-.7.12-.24.23-.48.34-.69l1.92-.27c-.11.2-.22.44-.34.69-.11.22-.24.48-.38.78-.14.3-.31.63-.49,1s-.34.67-.44.91c-.11.24-.19.43-.24.57-.05.14-.07.24-.05.3.02.06.06.09.13.09.14,0,.3-.09.49-.28.19-.19.36-.39.52-.62.19-.27.39-.57.6-.9-.18.44-.39.83-.64,1.17-.11.15-.22.29-.35.43-.13.14-.28.26-.43.37s-.33.2-.51.26-.38.1-.58.1c-.38,0-.63-.08-.76-.23-.12-.15-.17-.35-.13-.58.03-.23.11-.5.24-.78s.26-.56.39-.82h0ZM31.74,25.55c.07,0,.16-.04.25-.13.09-.09.19-.19.29-.33.1-.13.21-.29.32-.46.11-.17.22-.35.32-.54.24-.43.5-.92.77-1.46-.03.13-.08.3-.15.52-.07.22-.16.46-.27.72-.11.26-.23.52-.38.78-.14.26-.3.5-.49.72-.18.21-.38.39-.6.52s-.46.2-.72.2c-.4,0-.69-.12-.86-.36-.18-.24-.26-.54-.25-.9,0-.36.1-.75.28-1.17.17-.42.41-.81.72-1.17.31-.36.68-.66,1.11-.9.43-.24.9-.36,1.41-.36.28,0,.52.05.72.16.19.11.35.23.46.37.14.15.24.33.3.54l-.19.07c-.06-.15-.13-.28-.22-.39-.07-.1-.16-.19-.26-.27s-.21-.12-.32-.12c-.21,0-.44.1-.67.29-.24.19-.46.44-.68.73-.22.29-.42.61-.6.95-.18.34-.32.66-.41.95-.09.29-.14.54-.13.73,0,.19.09.29.25.29h0Z" class="cls-1"></path>
      <path d="M36.39,21.24l.27-.48h3.13l-.25.48h-3.14ZM35.84,23.68c.06-.13.13-.29.23-.49.1-.19.2-.41.32-.63.11-.23.23-.46.35-.71s.24-.49.37-.74c.28-.57.57-1.17.89-1.79l2.21-.84c-.36.71-.7,1.4-1.02,2.07-.14.28-.28.57-.43.87s-.29.58-.43.86c-.14.28-.28.54-.4.79-.12.25-.23.46-.32.64-.19.37-.34.67-.44.91-.11.24-.19.43-.24.57-.05.14-.07.24-.05.3.02.06.06.09.13.09.14,0,.3-.09.49-.28.19-.19.36-.39.52-.62.19-.27.39-.57.6-.9-.18.44-.39.83-.64,1.17-.11.15-.22.29-.35.43-.13.14-.28.26-.43.37-.16.11-.33.2-.51.26s-.38.1-.58.1c-.38,0-.63-.08-.76-.23-.12-.15-.17-.35-.13-.58.03-.23.11-.5.24-.78.13-.29.26-.56.39-.82h0Z" class="cls-1"></path>
      <path d="M41.24,23.68c.12-.26.25-.52.37-.77.13-.25.24-.49.35-.7.12-.24.23-.48.34-.69l1.92-.27c-.11.2-.22.44-.34.69-.11.22-.24.48-.38.78-.14.3-.31.63-.49,1s-.34.67-.44.91c-.11.24-.19.43-.24.57-.05.14-.07.24-.05.3.02.06.06.09.13.09.14,0,.3-.09.49-.28.19-.19.36-.39.52-.62.19-.27.39-.57.6-.9-.18.44-.39.83-.64,1.17-.11.15-.22.29-.35.43s-.28.26-.43.37c-.16.11-.33.2-.51.26s-.38.1-.58.1c-.38,0-.63-.08-.76-.23-.12-.15-.17-.35-.13-.58.03-.23.11-.5.24-.78.13-.29.26-.56.39-.82h0ZM38.49,23.68c.13-.26.26-.52.38-.77.13-.25.25-.49.36-.7.12-.24.24-.48.37-.69l1.92-.27c-.11.2-.22.44-.35.69-.11.22-.25.48-.4.78-.15.3-.32.63-.51,1-.19.37-.34.66-.45.89-.11.23-.19.41-.24.55-.05.13-.06.23-.04.28.02.05.06.08.13.08.11,0,.28-.12.49-.36s.44-.54.68-.89c.24-.36.48-.74.71-1.16.23-.42.42-.81.58-1.17-.28.66-.54,1.24-.78,1.76-.25.52-.5.95-.74,1.31-.25.36-.51.64-.78.82-.27.19-.57.28-.9.28-.38,0-.65-.06-.81-.17-.16-.11-.24-.28-.24-.49,0-.21.05-.46.18-.76.12-.3.27-.63.45-1.01h0Z" class="cls-1"></path>
      <path d="M47.89,21.24c.41,0,.7.07.85.21.15.14.22.32.21.53,0,.21-.07.44-.19.69-.12.25-.24.48-.35.69-.12.21-.21.39-.28.53-.07.14-.06.21.03.21.14,0,.29-.06.44-.18.16-.12.31-.25.44-.4.15-.17.31-.37.46-.58-.17.32-.37.6-.58.84-.19.21-.43.4-.71.58-.28.17-.61.26-.98.26-.33,0-.55-.07-.66-.19-.11-.13-.15-.29-.12-.49.03-.2.1-.41.21-.64s.22-.45.32-.64c.11-.2.18-.36.23-.49.05-.13.01-.19-.09-.19-.15,0-.29.07-.44.21-.15.14-.28.29-.39.45-.14.19-.26.41-.38.64-.07.09-.13.17-.21.25-.07.08-.14.14-.19.2-.05.06-.09.09-.13.11s-.04.01-.02-.02c.15-.33.32-.65.51-.96.19-.31.4-.58.62-.82.22-.24.45-.43.68-.57.23-.14.48-.21.72-.21h0ZM42.73,26.11l2.27-4.6,1.92-.27-2.39,4.87h-1.8Z" class="cls-1"></path>
      <path d="M51.89,23.68c.12-.26.25-.52.37-.77.13-.25.24-.49.35-.7.12-.24.23-.48.34-.69l1.92-.27c-.11.2-.22.44-.34.69-.11.22-.24.48-.38.78-.14.3-.31.63-.49,1s-.34.67-.44.91c-.11.24-.19.43-.24.57-.05.14-.07.24-.05.3.02.06.06.09.13.09.14,0,.3-.09.49-.28.19-.19.36-.39.52-.62.19-.27.39-.57.6-.9-.18.44-.39.83-.64,1.17-.11.15-.22.29-.35.43-.13.14-.28.26-.43.37s-.33.2-.51.26-.38.1-.58.1c-.38,0-.63-.08-.76-.23-.12-.15-.17-.35-.13-.58.03-.23.11-.5.24-.78.13-.29.26-.56.39-.82h0ZM50.46,25.55c.07,0,.16-.04.25-.13.09-.09.19-.19.29-.33.1-.13.21-.29.32-.46.11-.17.22-.35.32-.54.24-.43.5-.92.77-1.46-.03.13-.08.3-.15.52-.07.22-.16.46-.27.72-.11.26-.23.52-.38.78-.14.26-.3.5-.49.72-.18.21-.38.39-.6.52s-.46.2-.72.2c-.4,0-.69-.12-.86-.36-.18-.24-.26-.54-.25-.9,0-.36.1-.75.28-1.17.17-.42.41-.81.72-1.17.31-.36.68-.66,1.11-.9.43-.24.9-.36,1.41-.36.28,0,.52.05.72.16.19.11.35.23.46.37.14.15.24.33.3.54l-.19.07c-.06-.15-.13-.28-.22-.39-.07-.1-.16-.19-.26-.27-.1-.08-.21-.12-.32-.12-.21,0-.44.1-.67.29-.24.19-.46.44-.68.73-.22.29-.42.61-.6.95-.18.34-.32.66-.41.95-.09.29-.14.54-.13.73,0,.19.09.29.25.29h0Z" class="cls-1"></path>
      <path d="M54.54,23.68c.06-.13.14-.31.25-.54.11-.23.24-.48.38-.76.14-.28.28-.58.44-.89s.31-.63.46-.94c.36-.73.75-1.51,1.17-2.35l1.92-.27c-.41.82-.79,1.6-1.16,2.35-.15.32-.31.64-.48.97-.16.33-.32.64-.48.95-.15.3-.3.59-.43.85-.13.26-.24.48-.33.66-.19.37-.34.67-.44.91-.11.24-.19.43-.24.57-.05.14-.07.24-.05.3.02.06.06.09.13.09.14,0,.3-.09.49-.28.19-.19.36-.39.52-.62.19-.27.39-.57.6-.9-.18.44-.39.83-.64,1.17-.11.15-.22.29-.35.43s-.28.26-.43.37-.33.2-.51.26-.38.1-.58.1c-.38,0-.63-.08-.76-.23-.12-.15-.17-.35-.13-.58.03-.23.11-.5.24-.78.13-.29.26-.56.39-.82h0Z" class="cls-1"></path>
      <path d="M34.62,5.62l5.1,8.74c.18.32-.04.71-.41.71h-10.21c-.37,0-.59-.4-.41-.71l5.1-8.73c.18-.31.64-.31.82,0h0Z" class="cls-1"></path>
      <path d="M48.92,8.44l3.38,5.93c.18.32-.05.71-.41.71h-6.76c-.36,0-.59-.39-.41-.71l3.38-5.93c.18-.32.64-.32.82,0h0Z" class="cls-1"></path>
      <path d="M39.06,2.73l1.17-.92,1.31,1.65.22-1.43-1.05-1.8c-.18-.31-.64-.31-.82,0l-.97,1.67.14.83h0Z" class="cls-1"></path>
      <path d="M46.22,9.66l-3.84-6.58-.34,2.23-1.92-2.43-1.58,1.24-.21-1.19-2.05,3.51c-.09.15-.09.33,0,.48l4.63,7.93c.09.14.24.23.41.23h1.82c.17,0,.33-.09.41-.24l2.68-4.7c.08-.15.08-.33,0-.47h0Z" class="cls-1"></path>
    </g>
  </g>
</svg>