<svg width="170" height="48" viewBox="0 0 170 48" fill="none" xmlns="http://www.w3.org/2000/svg">
<g clip-path="url(#clip0_1960_1485)">
<mask id="mask0_1960_1485" style="mask-type:luminance" maskUnits="userSpaceOnUse" x="-7" y="-9" width="183" height="63">
<path d="M175.628 -8.56738H-6.06055V53.4082H175.628V-8.56738Z" fill="white"/>
</mask>
<g mask="url(#mask0_1960_1485)">
<path d="M7.72489 11.7344C9.50214 11.7344 10.8692 11.985 11.8946 12.5546C12.9199 13.1471 13.6262 14.0129 14.082 15.3572C14.5149 16.6332 14.7883 18.4332 14.7883 20.8029C14.7883 23.1042 14.5377 24.9042 14.082 26.2485C13.649 27.5245 12.9427 28.5042 11.8946 29.0511C10.8692 29.6435 9.52492 29.8714 7.72489 29.8714C5.74259 29.8714 3.55521 29.803 1.32227 29.6207V12.0078C3.62357 11.8939 5.74259 11.7344 7.72489 11.7344ZM7.72489 27.7295C8.81858 27.7295 9.66163 27.5245 10.2996 27.0916C10.9376 26.6586 11.3933 25.9523 11.6439 24.9725C11.8946 24.0156 12.0313 22.6029 12.0313 20.8712C12.0313 19.1395 11.9174 17.7952 11.6439 16.7699C11.3933 15.8129 10.9376 15.1066 10.2996 14.6509C9.66163 14.218 8.84137 14.0129 7.72489 14.0129C6.69956 14.0129 5.42359 14.0129 3.89699 14.0812V27.684C5.42359 27.6612 6.69956 27.7295 7.72489 27.7295ZM20.12 11.8939C20.6441 11.8939 20.8264 12.1445 20.8264 12.6002V14.0129C20.8264 14.5369 20.5757 14.7648 20.12 14.7648H18.9808C18.5478 14.7648 18.2744 14.5142 18.2744 14.0129V12.6002C18.2744 12.0762 18.5251 11.8939 18.9808 11.8939H20.12ZM20.758 29.7119H18.32V17.2028H20.758V29.7119ZM28.7784 16.8382C29.5986 16.8382 30.51 16.9066 31.5354 16.9522C32.5607 17.0205 33.4721 17.1572 34.2924 17.2712L34.0873 19.0484C33.8367 19.0484 33.4493 19.0484 32.9481 18.9801C32.5607 18.9801 32.0366 18.9117 31.3987 18.9117C30.8063 18.9117 30.1227 18.9117 29.2796 18.9117C28.4366 18.9117 27.8214 18.9117 27.4113 18.9801C27.0011 19.0484 26.7733 19.094 26.591 19.3674C26.3859 19.5725 26.3404 19.8915 26.3404 20.3244C26.3404 20.7117 26.4087 21.0307 26.5454 21.2358C26.6594 21.4408 26.8644 21.5548 27.0695 21.6231C27.2746 21.6915 27.6619 21.8282 28.1632 21.9421L31.6949 22.8535C32.7886 23.1042 33.4721 23.4915 33.9506 23.9928C34.3835 24.5168 34.5886 25.2688 34.5886 26.3624C34.5886 27.3878 34.3835 28.1397 33.9962 28.6637C33.6088 29.1878 33.0392 29.5751 32.2645 29.6891C31.5126 29.803 30.4873 29.9397 29.1201 29.9397C27.3885 29.9397 25.7252 29.8258 24.1074 29.5524L24.3125 27.684C25.2695 27.7523 26.6821 27.7979 28.6189 27.7979C29.5759 27.7979 30.2822 27.7295 30.8062 27.684C31.3303 27.6156 31.6265 27.4333 31.8316 27.2511C32.0366 27.0004 32.1506 26.6586 32.1506 26.2941C32.1506 25.9295 32.0822 25.6561 31.9455 25.4738C31.8088 25.2915 31.6265 25.1548 31.3531 25.0409C31.1025 24.927 30.7607 24.8358 30.2138 24.7219L26.8872 23.9016C25.8619 23.651 25.11 23.1953 24.6998 22.6712C24.2669 22.1472 24.0618 21.3269 24.0618 20.3016C24.0618 19.3902 24.1758 18.6383 24.5859 18.1826C24.9049 17.6585 25.4062 17.3623 26.0442 17.1572C26.6821 16.9522 27.6391 16.8382 28.7784 16.8382ZM45.2065 16.8382C46.6647 16.8382 47.7812 17.4307 48.4192 18.5016C49.0572 19.5725 49.4445 21.2586 49.4445 23.5143C49.4445 25.884 49.0572 27.5473 48.3052 28.527C47.5533 29.484 46.3229 29.9853 44.7052 29.9853C43.0419 29.9853 41.4925 29.5524 40.1482 28.7093C40.2165 29.5296 40.2165 30.441 40.2165 31.284V34.8157H37.7785V17.2028H39.8292L40.0342 19.1395C40.6722 18.4332 41.4925 17.9091 42.4722 17.4762C43.4292 17.0661 44.3406 16.8382 45.2065 16.8382ZM44.0672 27.8663C44.7735 27.8663 45.3432 27.7523 45.7989 27.4789C46.2318 27.2283 46.5052 26.8409 46.7103 26.2029C46.9154 25.565 46.9609 24.6536 46.9609 23.5143C46.9609 21.851 46.7559 20.7117 46.3685 20.051C45.9812 19.413 45.3432 19.0256 44.4318 19.0256C43.7938 19.0256 43.1558 19.1395 42.495 19.4585C41.857 19.7775 41.1507 20.2105 40.2393 20.8712V27.2283C40.3532 27.2966 40.7634 27.3422 41.333 27.4789C41.9254 27.5928 42.4267 27.7295 42.7912 27.7979C43.1786 27.8663 43.6799 27.8663 44.0672 27.8663ZM55.2775 26.1118C55.2775 27.2055 55.8699 27.7295 56.9408 27.7295H58.0801L58.3991 29.6663C58.1484 29.7802 57.8067 29.8714 57.3054 29.9169C56.7813 29.9625 56.394 29.9853 56.0294 29.9853C55.0724 29.9853 54.2977 29.7346 53.7281 29.165C53.1357 28.5726 52.9078 27.7523 52.9078 26.727V11.7344H55.3914L55.2775 26.1118ZM66.5334 16.8382C68.0828 16.8382 69.1764 17.1572 69.86 17.7952C70.5663 18.4332 70.9537 19.4585 70.9537 21.0079V29.7346H69.017L68.7663 27.7523C68.1739 28.3447 67.4903 28.846 66.5789 29.3017C65.6675 29.7346 64.8017 29.9397 63.7764 29.9397C62.6371 29.9397 61.6573 29.6207 61.0194 29.0283C60.3814 28.4359 59.994 27.5701 59.994 26.3852V25.1093C59.994 24.1523 60.313 23.3776 60.9054 22.808C61.5434 22.2155 62.3637 21.9877 63.5485 21.9877H68.5157V21.0307C68.5157 20.2788 68.3106 19.7547 67.9916 19.413C67.6726 19.094 67.0346 18.9801 66.0549 18.9801C65.0751 18.9801 63.3662 19.094 60.7232 19.299L60.4725 17.5218C61.4295 17.3167 62.4548 17.2028 63.6169 17.0889C64.8017 16.8838 65.622 16.8382 66.5334 16.8382ZM62.432 26.1118C62.432 26.7498 62.546 27.2055 62.865 27.4561C63.184 27.7068 63.6169 27.8435 64.2776 27.8435C64.9156 27.8435 65.622 27.7296 66.3967 27.4106C67.1486 27.0916 67.8549 26.6586 68.5157 26.0662V23.8105H63.8903C63.2979 23.8105 62.9333 23.9244 62.751 24.2434C62.546 24.4941 62.432 24.8814 62.432 25.3827V26.089V26.1118ZM86.0375 17.2028L81.1614 30.3043C80.0222 33.3803 78.0854 34.9297 75.3968 34.998L75.1462 33.3347C76.1031 33.0157 76.8778 32.6284 77.4475 32.1043C78.0171 31.5802 78.4728 30.965 78.7918 30.1676L78.9969 29.7346H78.4728C78.2677 29.7346 78.0854 29.6663 77.8804 29.6207C77.7664 29.5068 77.6297 29.3701 77.5614 29.0967L73.1411 17.2256H75.8297L78.9057 26.3397C79.1108 26.8637 79.2247 27.365 79.3386 27.889H79.726L80.25 26.3397L83.326 17.2256C83.326 17.2028 86.0375 17.2028 86.0375 17.2028Z" fill="#111B26"/>
<path d="M115.499 28.9372C115.499 29.5752 115.18 29.9625 114.542 29.9625H112.104C111.853 29.9625 111.58 29.8942 111.466 29.7574C111.261 29.6435 111.147 29.4384 111.033 29.165L105.496 17.0433C105.428 16.9294 105.245 16.6104 104.972 16.018C104.721 15.4256 104.539 14.9927 104.379 14.6053H103.992C104.06 15.3117 104.106 16.0636 104.106 17.0433V29.8714H101.531V13.2154C101.531 12.5774 101.85 12.2584 102.488 12.2584H104.858C105.109 12.2584 105.382 12.3268 105.496 12.4635C105.701 12.5774 105.815 12.7825 105.929 13.0559L111.306 24.7903L111.625 25.5422C112.012 26.3625 112.331 26.9549 112.536 27.4106H112.924C112.855 26.3852 112.81 25.4738 112.81 24.6536V12.2584H115.43V28.9372H115.499ZM126.23 11.9395C128.008 11.9395 129.375 12.1901 130.4 12.7597C131.425 13.3521 132.132 14.3091 132.656 15.5623C133.18 16.8383 133.362 18.7066 133.362 21.0991C133.362 23.4915 133.111 25.2688 132.656 26.6359C132.223 27.9802 131.425 28.8916 130.4 29.4384C129.375 30.0309 127.962 30.2587 126.23 30.2587C124.499 30.2587 123.086 30.0081 122.061 29.4384C121.035 28.846 120.329 27.8891 119.873 26.6359C119.44 25.3599 119.167 23.4915 119.167 21.0991C119.167 18.7066 119.418 16.9294 119.873 15.5623C120.329 14.1952 121.013 13.3066 122.061 12.7597C123.086 12.1901 124.43 11.9395 126.23 11.9395ZM126.23 14.1952C125.091 14.1952 124.248 14.4002 123.587 14.8332C122.927 15.2661 122.494 15.9724 122.243 16.9522C121.992 17.9092 121.856 19.3218 121.856 21.1219C121.856 22.8991 121.97 24.2662 122.243 25.2916C122.494 26.2485 122.949 26.9549 123.587 27.4106C124.225 27.8435 125.046 28.0486 126.23 28.0486C127.37 28.0486 128.213 27.8435 128.873 27.4106C129.511 26.9777 129.967 26.2713 130.218 25.2916C130.468 24.3346 130.605 22.9219 130.605 21.1219C130.605 19.3446 130.491 17.9775 130.218 16.9522C129.967 15.9952 129.511 15.2889 128.873 14.8332C128.213 14.423 127.392 14.1952 126.23 14.1952ZM155.122 29.2106C155.054 29.4157 154.917 29.5979 154.735 29.7347C154.53 29.8486 154.347 29.9397 154.097 29.9397H151.294C151.043 29.9397 150.861 29.8714 150.656 29.7347C150.451 29.5979 150.337 29.4157 150.269 29.1422L147.694 16.1091C147.489 15.1977 147.375 14.5597 147.307 14.1268H146.783L146.669 14.7648C146.6 15.3572 146.464 15.7901 146.418 16.1091L143.82 29.1422C143.752 29.3473 143.707 29.5296 143.501 29.7347C143.296 29.8486 143.114 29.9397 142.864 29.9397H139.97C139.719 29.9397 139.537 29.8714 139.332 29.7347C139.127 29.6207 139.013 29.4157 139.013 29.2106L135.618 12.2584H138.306L140.881 25.7245C140.995 26.3169 141.086 26.8637 141.132 27.4561L141.2 27.9802H141.793C141.861 27.2739 141.998 26.5219 142.18 25.7245L144.755 13.0787C144.823 12.8281 144.96 12.6458 145.074 12.4407C145.279 12.3268 145.461 12.1901 145.712 12.1901H148.469C148.719 12.1901 148.902 12.2584 149.107 12.4407C149.312 12.5547 149.426 12.8281 149.426 13.0331L151.909 25.7473C152.023 26.4536 152.16 27.1599 152.297 28.003H152.889L153.003 26.9093C153.071 26.3852 153.117 25.9979 153.208 25.77L155.783 12.2357H158.471L155.122 29.2106Z" fill="#111B26"/>
</g>
<path d="M161.956 1.20752H96.9273C93.0766 1.20752 89.9551 4.32909 89.9551 8.17978V34.7017C89.9551 38.5524 93.0994 41.6739 96.9273 41.6739H120.464L119.28 40.717L114.836 37.1397L114.745 37.0486H96.9273C95.6286 37.0486 94.6033 36.0004 94.6033 34.7245V8.17978C94.6033 6.88102 95.6514 5.85569 96.9273 5.85569H161.979C163.278 5.85569 164.303 6.90381 164.303 8.17978V34.7017C164.303 35.9777 163.255 37.0258 161.979 37.0258H144.161L144.047 37.1169L138.465 41.6739H161.979C165.83 41.6739 168.951 38.5296 168.951 34.7017V8.17978C168.951 4.32909 165.83 1.20752 161.956 1.20752Z" fill="#0067B1"/>
<path d="M129.442 33.1294C124.885 33.1294 120.761 34.656 117.73 37.1168L120.761 39.5776C123.017 37.7548 126.07 36.6383 129.442 36.6383C132.814 36.6383 135.867 37.7548 138.123 39.5776L141.154 37.1168C138.123 34.656 133.999 33.1294 129.442 33.1294Z" fill="#0067B1"/>
<path d="M129.441 38.3247C126.638 38.3247 124.064 39.2589 122.195 40.7399L125.249 43.2007C126.365 42.3577 127.846 41.8336 129.464 41.8336C131.082 41.8336 132.563 42.3577 133.679 43.2007L136.709 40.7399C134.818 39.2361 132.266 38.3247 129.441 38.3247Z" fill="#0067B1"/>
<path d="M129.419 43.4741C128.348 43.4741 127.346 43.7931 126.594 44.3172L129.419 46.6185H129.465L132.29 44.34C131.515 43.7931 130.513 43.4741 129.419 43.4741Z" fill="#0067B1"/>
</g>
<defs>
<clipPath id="clip0_1960_1485">
<rect width="170" height="47.4387" fill="white"/>
</clipPath>
</defs>
</svg>
